<svg xmlns="http://www.w3.org/2000/svg" width="1280" height="860" viewBox="0 0 1280 860">
<style>text{font-family:Arial,sans-serif;fill:#172033}.title{font-size:23px;font-weight:bold}.sub{font-size:13px;fill:#4b5563}.label{font-size:12px}.tick{font-size:11px;fill:#4b5563}.value{font-size:11px;font-weight:bold}.grid{stroke:#e5e7eb;stroke-width:1}.baseline{stroke:#111827;stroke-width:2}.slow{fill:#e58b31}.fast{fill:#169a70}</style>
<rect width="100%" height="100%" fill="white"/>
<text x="28" y="34" class="title">XLang3 vs CPython 3.14.7 — pyperformance fast mode</text>
<text x="28" y="57" class="sub">30/97 definitions completed; 67/97 failed. CPython time ÷ XLang3 time: geomean 0.208×. Right of 1× is faster.</text>
<line x1="270.0" y1="79" x2="270.0" y2="794" class="grid"/>
<text x="270.0" y="71" text-anchor="middle" class="tick">0.02×</text>
<line x1="439.1" y1="79" x2="439.1" y2="794" class="grid"/>
<text x="439.1" y="71" text-anchor="middle" class="tick">0.05×</text>
<line x1="567.1" y1="79" x2="567.1" y2="794" class="grid"/>
<text x="567.1" y="71" text-anchor="middle" class="tick">0.1×</text>
<line x1="695.0" y1="79" x2="695.0" y2="794" class="grid"/>
<text x="695.0" y="71" text-anchor="middle" class="tick">0.2×</text>
<line x1="864.1" y1="79" x2="864.1" y2="794" class="grid"/>
<text x="864.1" y="71" text-anchor="middle" class="tick">0.5×</text>
<line x1="992.1" y1="79" x2="992.1" y2="794" class="baseline"/>
<text x="992.1" y="71" text-anchor="middle" class="tick">1×</text>
<line x1="1120.0" y1="79" x2="1120.0" y2="794" class="grid"/>
<text x="1120.0" y="71" text-anchor="middle" class="tick">2×</text>
<text x="260" y="116" text-anchor="end" class="label">telco</text>
<rect x="270.0" y="106" width="21.3" height="14" rx="2" class="slow"/>
<text x="1133" y="117" class="value">0.02×</text>
<text x="260" y="139" text-anchor="end" class="label">subparsers</text>
<rect x="270.0" y="129" width="101.2" height="14" rx="2" class="slow"/>
<text x="1133" y="140" class="value">0.03×</text>
<text x="260" y="162" text-anchor="end" class="label">pickle_pure_python</text>
<rect x="270.0" y="152" width="165.5" height="14" rx="2" class="slow"/>
<text x="1133" y="163" class="value">0.05×</text>
<text x="260" y="185" text-anchor="end" class="label">unpickle_pure_python</text>
<rect x="270.0" y="175" width="201.1" height="14" rx="2" class="slow"/>
<text x="1133" y="186" class="value">0.06×</text>
<text x="260" y="208" text-anchor="end" class="label">deltablue</text>
<rect x="270.0" y="198" width="241.2" height="14" rx="2" class="slow"/>
<text x="1133" y="209" class="value">0.07×</text>
<text x="260" y="231" text-anchor="end" class="label">richards_super</text>
<rect x="270.0" y="221" width="265.2" height="14" rx="2" class="slow"/>
<text x="1133" y="232" class="value">0.08×</text>
<text x="260" y="254" text-anchor="end" class="label">hexiom</text>
<rect x="270.0" y="244" width="266.5" height="14" rx="2" class="slow"/>
<text x="1133" y="255" class="value">0.08×</text>
<text x="260" y="277" text-anchor="end" class="label">many_optionals</text>
<rect x="270.0" y="267" width="267.1" height="14" rx="2" class="slow"/>
<text x="1133" y="278" class="value">0.09×</text>
<text x="260" y="300" text-anchor="end" class="label">chaos</text>
<rect x="270.0" y="290" width="294.2" height="14" rx="2" class="slow"/>
<text x="1133" y="301" class="value">0.10×</text>
<text x="260" y="323" text-anchor="end" class="label">richards</text>
<rect x="270.0" y="313" width="300.1" height="14" rx="2" class="slow"/>
<text x="1133" y="324" class="value">0.10×</text>
<text x="260" y="346" text-anchor="end" class="label">coroutines</text>
<rect x="270.0" y="336" width="317.1" height="14" rx="2" class="slow"/>
<text x="1133" y="347" class="value">0.11×</text>
<text x="260" y="369" text-anchor="end" class="label">unpickle</text>
<rect x="270.0" y="359" width="376.1" height="14" rx="2" class="slow"/>
<text x="1133" y="370" class="value">0.15×</text>
<text x="260" y="392" text-anchor="end" class="label">regex_effbot</text>
<rect x="270.0" y="382" width="378.4" height="14" rx="2" class="slow"/>
<text x="1133" y="393" class="value">0.16×</text>
<text x="260" y="415" text-anchor="end" class="label">json_loads</text>
<rect x="270.0" y="405" width="417.0" height="14" rx="2" class="slow"/>
<text x="1133" y="416" class="value">0.19×</text>
<text x="260" y="438" text-anchor="end" class="label">crypto_pyaes</text>
<rect x="270.0" y="428" width="417.6" height="14" rx="2" class="slow"/>
<text x="1133" y="439" class="value">0.19×</text>
<text x="260" y="461" text-anchor="end" class="label">spectral_norm</text>
<rect x="270.0" y="451" width="433.1" height="14" rx="2" class="slow"/>
<text x="1133" y="462" class="value">0.21×</text>
<text x="260" y="484" text-anchor="end" class="label">json_dumps</text>
<rect x="270.0" y="474" width="440.3" height="14" rx="2" class="slow"/>
<text x="1133" y="485" class="value">0.22×</text>
<text x="260" y="507" text-anchor="end" class="label">unpack_sequence</text>
<rect x="270.0" y="497" width="481.7" height="14" rx="2" class="slow"/>
<text x="1133" y="508" class="value">0.27×</text>
<text x="260" y="530" text-anchor="end" class="label">unpickle_list</text>
<rect x="270.0" y="520" width="489.0" height="14" rx="2" class="slow"/>
<text x="1133" y="531" class="value">0.28×</text>
<text x="260" y="553" text-anchor="end" class="label">regex_v8</text>
<rect x="270.0" y="543" width="491.8" height="14" rx="2" class="slow"/>
<text x="1133" y="554" class="value">0.29×</text>
<text x="260" y="576" text-anchor="end" class="label">nbody</text>
<rect x="270.0" y="566" width="493.8" height="14" rx="2" class="slow"/>
<text x="1133" y="577" class="value">0.29×</text>
<text x="260" y="599" text-anchor="end" class="label">pidigits</text>
<rect x="270.0" y="589" width="564.4" height="14" rx="2" class="slow"/>
<text x="1133" y="600" class="value">0.43×</text>
<text x="260" y="622" text-anchor="end" class="label">pickle</text>
<rect x="270.0" y="612" width="603.3" height="14" rx="2" class="slow"/>
<text x="1133" y="623" class="value">0.53×</text>
<text x="260" y="645" text-anchor="end" class="label">typing_runtime_protocols</text>
<rect x="270.0" y="635" width="605.9" height="14" rx="2" class="slow"/>
<text x="1133" y="646" class="value">0.53×</text>
<text x="260" y="668" text-anchor="end" class="label">regex_dna</text>
<rect x="270.0" y="658" width="644.8" height="14" rx="2" class="slow"/>
<text x="1133" y="669" class="value">0.66×</text>
<text x="260" y="691" text-anchor="end" class="label">float</text>
<rect x="270.0" y="681" width="670.5" height="14" rx="2" class="slow"/>
<text x="1133" y="692" class="value">0.76×</text>
<text x="260" y="714" text-anchor="end" class="label">pickle_dict</text>
<rect x="270.0" y="704" width="719.9" height="14" rx="2" class="slow"/>
<text x="1133" y="715" class="value">0.99×</text>
<text x="260" y="737" text-anchor="end" class="label">pickle_list</text>
<rect x="270.0" y="727" width="740.7" height="14" rx="2" class="fast"/>
<text x="1133" y="738" class="value">1.11×</text>
<text x="260" y="760" text-anchor="end" class="label">fannkuch</text>
<rect x="270.0" y="750" width="743.3" height="14" rx="2" class="fast"/>
<text x="1133" y="761" class="value">1.12×</text>
<text x="260" y="783" text-anchor="end" class="label">gc_traversal</text>
<rect x="270.0" y="773" width="820.7" height="14" rx="2" class="fast"/>
<text x="1133" y="784" class="value">1.71×</text>
<text x="270" y="836" class="sub">Logarithmic scale; 1× means equal time; faster ratios extend right of the vertical 1× line.</text>
</svg>
