<svg xmlns="http://www.w3.org/2000/svg" width="1400" height="808" viewBox="0 0 1400 808">
<style>text{font-family:Segoe UI,Arial,sans-serif;fill:#17212b}.title{font-size:23px;font-weight:700}.sub{font-size:14px;fill:#475569}.label{font-size:13px}.value{font-size:12px;fill:#334155}.axis{font-size:12px;fill:#475569}</style>
<rect width="100%" height="100%" fill="#fff"/>
<text x="24" y="30" class="title">XLang3 vs CPython 3.14 — full pyperformance fast results</text>
<text x="24" y="54" class="sub">CPython time ÷ XLang3 time · right of 1× favors XLang3 · log scale · full 97-definition run</text>
<line x1="350.0" y1="68" x2="350.0" y2="753" stroke="#dbe2ea" stroke-width="1"/>
<text x="350.0" y="794" text-anchor="middle" class="axis">0.001×</text>
<line x1="540.0" y1="68" x2="540.0" y2="753" stroke="#dbe2ea" stroke-width="1"/>
<text x="540.0" y="794" text-anchor="middle" class="axis">0.01×</text>
<line x1="730.0" y1="68" x2="730.0" y2="753" stroke="#dbe2ea" stroke-width="1"/>
<text x="730.0" y="794" text-anchor="middle" class="axis">0.1×</text>
<line x1="920.0" y1="68" x2="920.0" y2="753" stroke="#2563eb" stroke-width="2"/>
<text x="920.0" y="794" text-anchor="middle" class="axis">1×</text>
<line x1="1110.0" y1="68" x2="1110.0" y2="753" stroke="#dbe2ea" stroke-width="1"/>
<text x="1110.0" y="794" text-anchor="middle" class="axis">10×</text>
<line x1="1300.0" y1="68" x2="1300.0" y2="753" stroke="#dbe2ea" stroke-width="1"/>
<text x="1300.0" y="794" text-anchor="middle" class="axis">100×</text>
<text x="24" y="97" class="label">pickle_pure_python</text>
<rect x="638.7" y="86" width="281.3" height="15" rx="3" fill="#c2413b"/>
<text x="631.7" y="97" text-anchor="end" class="value">0.03306×</text>
<text x="24" y="120" class="label">unpickle_pure_python</text>
<rect x="648.1" y="109" width="271.9" height="15" rx="3" fill="#c2413b"/>
<text x="641.1" y="120" text-anchor="end" class="value">0.03708×</text>
<text x="24" y="143" class="label">typing_runtime_protocols</text>
<rect x="651.6" y="132" width="268.4" height="15" rx="3" fill="#c2413b"/>
<text x="644.6" y="143" text-anchor="end" class="value">0.03868×</text>
<text x="24" y="166" class="label">deltablue</text>
<rect x="653.7" y="155" width="266.3" height="15" rx="3" fill="#c2413b"/>
<text x="646.7" y="166" text-anchor="end" class="value">0.03967×</text>
<text x="24" y="189" class="label">subparsers</text>
<rect x="656.1" y="178" width="263.9" height="15" rx="3" fill="#c2413b"/>
<text x="649.1" y="189" text-anchor="end" class="value">0.04084×</text>
<text x="24" y="212" class="label">logging_silent</text>
<rect x="658.1" y="201" width="261.9" height="15" rx="3" fill="#c2413b"/>
<text x="651.1" y="212" text-anchor="end" class="value">0.04183×</text>
<text x="24" y="235" class="label">coroutines</text>
<rect x="661.6" y="224" width="258.4" height="15" rx="3" fill="#c2413b"/>
<text x="654.6" y="235" text-anchor="end" class="value">0.04367×</text>
<text x="24" y="258" class="label">deepcopy</text>
<rect x="663.9" y="247" width="256.1" height="15" rx="3" fill="#c2413b"/>
<text x="656.9" y="258" text-anchor="end" class="value">0.04488×</text>
<text x="24" y="281" class="label">deepcopy_reduce</text>
<rect x="670.7" y="270" width="249.3" height="15" rx="3" fill="#c2413b"/>
<text x="663.7" y="281" text-anchor="end" class="value">0.04874×</text>
<text x="24" y="304" class="label">logging_format</text>
<rect x="694.1" y="293" width="225.9" height="15" rx="3" fill="#c2413b"/>
<text x="687.1" y="304" text-anchor="end" class="value">0.06474×</text>
<text x="24" y="327" class="label">comprehensions</text>
<rect x="694.8" y="316" width="225.2" height="15" rx="3" fill="#c2413b"/>
<text x="687.8" y="327" text-anchor="end" class="value">0.06526×</text>
<text x="24" y="350" class="label">hexiom</text>
<rect x="695.9" y="339" width="224.1" height="15" rx="3" fill="#c2413b"/>
<text x="688.9" y="350" text-anchor="end" class="value">0.06617×</text>
<text x="24" y="373" class="label">many_optionals</text>
<rect x="697.2" y="362" width="222.8" height="15" rx="3" fill="#c2413b"/>
<text x="690.2" y="373" text-anchor="end" class="value">0.06723×</text>
<text x="24" y="396" class="label">richards</text>
<rect x="709.3" y="385" width="210.7" height="15" rx="3" fill="#c2413b"/>
<text x="702.3" y="396" text-anchor="end" class="value">0.07784×</text>
<text x="24" y="419" class="label">regex_effbot</text>
<rect x="755.9" y="408" width="164.1" height="15" rx="3" fill="#c2413b"/>
<text x="748.9" y="419" text-anchor="end" class="value">0.1368×</text>
<text x="24" y="442" class="label">unpickle</text>
<rect x="761.4" y="431" width="158.6" height="15" rx="3" fill="#c2413b"/>
<text x="754.4" y="442" text-anchor="end" class="value">0.1462×</text>
<text x="24" y="465" class="label">spectral_norm</text>
<rect x="766.7" y="454" width="153.3" height="15" rx="3" fill="#c2413b"/>
<text x="759.7" y="465" text-anchor="end" class="value">0.1559×</text>
<text x="24" y="488" class="label">json_loads</text>
<rect x="772.6" y="477" width="147.4" height="15" rx="3" fill="#c2413b"/>
<text x="765.6" y="488" text-anchor="end" class="value">0.1677×</text>
<text x="24" y="511" class="label">json_dumps</text>
<rect x="779.7" y="500" width="140.3" height="15" rx="3" fill="#c2413b"/>
<text x="772.7" y="511" text-anchor="end" class="value">0.1827×</text>
<text x="24" y="534" class="label">unpack_sequence</text>
<rect x="798.8" y="523" width="121.2" height="15" rx="3" fill="#c2413b"/>
<text x="791.8" y="534" text-anchor="end" class="value">0.2301×</text>
<text x="24" y="557" class="label">regex_v8</text>
<rect x="800.0" y="546" width="120.0" height="15" rx="3" fill="#c2413b"/>
<text x="793.0" y="557" text-anchor="end" class="value">0.2335×</text>
<text x="24" y="580" class="label">pickle</text>
<rect x="806.2" y="569" width="113.8" height="15" rx="3" fill="#c2413b"/>
<text x="799.2" y="580" text-anchor="end" class="value">0.2519×</text>
<text x="24" y="603" class="label">nbody</text>
<rect x="814.3" y="592" width="105.7" height="15" rx="3" fill="#c2413b"/>
<text x="807.3" y="603" text-anchor="end" class="value">0.2779×</text>
<text x="24" y="626" class="label">unpickle_list</text>
<rect x="814.5" y="615" width="105.5" height="15" rx="3" fill="#c2413b"/>
<text x="807.5" y="626" text-anchor="end" class="value">0.2783×</text>
<text x="24" y="649" class="label">pidigits</text>
<rect x="850.1" y="638" width="69.9" height="15" rx="3" fill="#c2413b"/>
<text x="843.1" y="649" text-anchor="end" class="value">0.4286×</text>
<text x="24" y="672" class="label">pickle_list</text>
<rect x="876.1" y="661" width="43.9" height="15" rx="3" fill="#c2413b"/>
<text x="869.1" y="672" text-anchor="end" class="value">0.5873×</text>
<text x="24" y="695" class="label">pickle_dict</text>
<rect x="887.2" y="684" width="32.8" height="15" rx="3" fill="#c2413b"/>
<text x="880.2" y="695" text-anchor="end" class="value">0.6722×</text>
<text x="24" y="718" class="label">float</text>
<rect x="889.0" y="707" width="31.0" height="15" rx="3" fill="#c2413b"/>
<text x="882.0" y="718" text-anchor="end" class="value">0.6865×</text>
<text x="24" y="741" class="label">gc_traversal</text>
<rect x="920.0" y="730" width="56.8" height="15" rx="3" fill="#238636"/>
<text x="983.8" y="741" text-anchor="start" class="value">1.99×</text>
</svg>
