<svg xmlns="http://www.w3.org/2000/svg" width="1280" height="1113" viewBox="0 0 1280 1113">
<style>text{font-family:Arial,sans-serif;fill:#172033}.title{font-size:23px;font-weight:bold}.sub{font-size:13px;fill:#4b5563}.label{font-size:12px}.tick{font-size:11px;fill:#4b5563}.value{font-size:11px;font-weight:bold}.grid{stroke:#e5e7eb;stroke-width:1}.baseline{stroke:#111827;stroke-width:2}.slow{fill:#e58b31}.fast{fill:#169a70}</style>
<rect width="100%" height="100%" fill="white"/>
<text x="28" y="34" class="title">XLang3 vs CPython 3.14.7 — pyperformance fast mode</text>
<text x="28" y="57" class="sub">39/97 definitions completed; 58/97 failed. CPython time ÷ XLang3 time: geomean 0.142×. Right of 1× is faster.</text>
<line x1="270.0" y1="79" x2="270.0" y2="1047" class="grid"/>
<text x="270.0" y="71" text-anchor="middle" class="tick">0.02×</text>
<line x1="439.1" y1="79" x2="439.1" y2="1047" class="grid"/>
<text x="439.1" y="71" text-anchor="middle" class="tick">0.05×</text>
<line x1="567.1" y1="79" x2="567.1" y2="1047" class="grid"/>
<text x="567.1" y="71" text-anchor="middle" class="tick">0.1×</text>
<line x1="695.0" y1="79" x2="695.0" y2="1047" class="grid"/>
<text x="695.0" y="71" text-anchor="middle" class="tick">0.2×</text>
<line x1="864.1" y1="79" x2="864.1" y2="1047" class="grid"/>
<text x="864.1" y="71" text-anchor="middle" class="tick">0.5×</text>
<line x1="992.1" y1="79" x2="992.1" y2="1047" class="baseline"/>
<text x="992.1" y="71" text-anchor="middle" class="tick">1×</text>
<line x1="1120.0" y1="79" x2="1120.0" y2="1047" class="grid"/>
<text x="1120.0" y="71" text-anchor="middle" class="tick">2×</text>
<text x="260" y="116" text-anchor="end" class="label">telco</text>
<rect x="270.0" y="106" width="1.0" height="14" rx="2" class="slow"/>
<text x="1133" y="117" class="value">0.02×</text>
<text x="260" y="139" text-anchor="end" class="label">subparsers</text>
<rect x="270.0" y="129" width="72.1" height="14" rx="2" class="slow"/>
<text x="1133" y="140" class="value">0.03×</text>
<text x="260" y="162" text-anchor="end" class="label">pickle_pure_python</text>
<rect x="270.0" y="152" width="143.6" height="14" rx="2" class="slow"/>
<text x="1133" y="163" class="value">0.04×</text>
<text x="260" y="185" text-anchor="end" class="label">logging_silent</text>
<rect x="270.0" y="175" width="160.4" height="14" rx="2" class="slow"/>
<text x="1133" y="186" class="value">0.05×</text>
<text x="260" y="208" text-anchor="end" class="label">unpickle_pure_python</text>
<rect x="270.0" y="198" width="171.4" height="14" rx="2" class="slow"/>
<text x="1133" y="209" class="value">0.05×</text>
<text x="260" y="231" text-anchor="end" class="label">pathlib</text>
<rect x="270.0" y="221" width="195.2" height="14" rx="2" class="slow"/>
<text x="1133" y="232" class="value">0.06×</text>
<text x="260" y="254" text-anchor="end" class="label">deltablue</text>
<rect x="270.0" y="244" width="208.2" height="14" rx="2" class="slow"/>
<text x="1133" y="255" class="value">0.06×</text>
<text x="260" y="277" text-anchor="end" class="label">generators</text>
<rect x="270.0" y="267" width="216.9" height="14" rx="2" class="slow"/>
<text x="1133" y="278" class="value">0.06×</text>
<text x="260" y="300" text-anchor="end" class="label">nqueens</text>
<rect x="270.0" y="290" width="221.2" height="14" rx="2" class="slow"/>
<text x="1133" y="301" class="value">0.07×</text>
<text x="260" y="323" text-anchor="end" class="label">logging_simple</text>
<rect x="270.0" y="313" width="224.6" height="14" rx="2" class="slow"/>
<text x="1133" y="324" class="value">0.07×</text>
<text x="260" y="346" text-anchor="end" class="label">many_optionals</text>
<rect x="270.0" y="336" width="226.9" height="14" rx="2" class="slow"/>
<text x="1133" y="347" class="value">0.07×</text>
<text x="260" y="369" text-anchor="end" class="label">hexiom</text>
<rect x="270.0" y="359" width="227.3" height="14" rx="2" class="slow"/>
<text x="1133" y="370" class="value">0.07×</text>
<text x="260" y="392" text-anchor="end" class="label">richards_super</text>
<rect x="270.0" y="382" width="231.4" height="14" rx="2" class="slow"/>
<text x="1133" y="393" class="value">0.07×</text>
<text x="260" y="415" text-anchor="end" class="label">meteor_contest</text>
<rect x="270.0" y="405" width="241.2" height="14" rx="2" class="slow"/>
<text x="1133" y="416" class="value">0.07×</text>
<text x="260" y="438" text-anchor="end" class="label">logging_format</text>
<rect x="270.0" y="428" width="243.2" height="14" rx="2" class="slow"/>
<text x="1133" y="439" class="value">0.07×</text>
<text x="260" y="461" text-anchor="end" class="label">chaos</text>
<rect x="270.0" y="451" width="250.9" height="14" rx="2" class="slow"/>
<text x="1133" y="462" class="value">0.08×</text>
<text x="260" y="484" text-anchor="end" class="label">richards</text>
<rect x="270.0" y="474" width="263.6" height="14" rx="2" class="slow"/>
<text x="1133" y="485" class="value">0.08×</text>
<text x="260" y="507" text-anchor="end" class="label">async_generators</text>
<rect x="270.0" y="497" width="274.7" height="14" rx="2" class="slow"/>
<text x="1133" y="508" class="value">0.09×</text>
<text x="260" y="530" text-anchor="end" class="label">raytrace</text>
<rect x="270.0" y="520" width="277.7" height="14" rx="2" class="slow"/>
<text x="1133" y="531" class="value">0.09×</text>
<text x="260" y="553" text-anchor="end" class="label">go</text>
<rect x="270.0" y="543" width="279.7" height="14" rx="2" class="slow"/>
<text x="1133" y="554" class="value">0.09×</text>
<text x="260" y="576" text-anchor="end" class="label">coroutines</text>
<rect x="270.0" y="566" width="285.3" height="14" rx="2" class="slow"/>
<text x="1133" y="577" class="value">0.09×</text>
<text x="260" y="599" text-anchor="end" class="label">unpickle</text>
<rect x="270.0" y="589" width="347.8" height="14" rx="2" class="slow"/>
<text x="1133" y="600" class="value">0.13×</text>
<text x="260" y="622" text-anchor="end" class="label">regex_effbot</text>
<rect x="270.0" y="612" width="349.9" height="14" rx="2" class="slow"/>
<text x="1133" y="623" class="value">0.13×</text>
<text x="260" y="645" text-anchor="end" class="label">json_loads</text>
<rect x="270.0" y="635" width="385.7" height="14" rx="2" class="slow"/>
<text x="1133" y="646" class="value">0.16×</text>
<text x="260" y="668" text-anchor="end" class="label">crypto_pyaes</text>
<rect x="270.0" y="658" width="386.1" height="14" rx="2" class="slow"/>
<text x="1133" y="669" class="value">0.16×</text>
<text x="260" y="691" text-anchor="end" class="label">json_dumps</text>
<rect x="270.0" y="681" width="394.0" height="14" rx="2" class="slow"/>
<text x="1133" y="692" class="value">0.17×</text>
<text x="260" y="714" text-anchor="end" class="label">spectral_norm</text>
<rect x="270.0" y="704" width="407.4" height="14" rx="2" class="slow"/>
<text x="1133" y="715" class="value">0.18×</text>
<text x="260" y="737" text-anchor="end" class="label">unpack_sequence</text>
<rect x="270.0" y="727" width="454.8" height="14" rx="2" class="slow"/>
<text x="1133" y="738" class="value">0.24×</text>
<text x="260" y="760" text-anchor="end" class="label">unpickle_list</text>
<rect x="270.0" y="750" width="460.7" height="14" rx="2" class="slow"/>
<text x="1133" y="761" class="value">0.24×</text>
<text x="260" y="783" text-anchor="end" class="label">regex_v8</text>
<rect x="270.0" y="773" width="465.9" height="14" rx="2" class="slow"/>
<text x="1133" y="784" class="value">0.25×</text>
<text x="260" y="806" text-anchor="end" class="label">nbody</text>
<rect x="270.0" y="796" width="473.9" height="14" rx="2" class="slow"/>
<text x="1133" y="807" class="value">0.26×</text>
<text x="260" y="829" text-anchor="end" class="label">asyncio_websockets</text>
<rect x="270.0" y="819" width="492.3" height="14" rx="2" class="slow"/>
<text x="1133" y="830" class="value">0.29×</text>
<text x="260" y="852" text-anchor="end" class="label">pidigits</text>
<rect x="270.0" y="842" width="542.4" height="14" rx="2" class="slow"/>
<text x="1133" y="853" class="value">0.38×</text>
<text x="260" y="875" text-anchor="end" class="label">typing_runtime_protocols</text>
<rect x="270.0" y="865" width="568.6" height="14" rx="2" class="slow"/>
<text x="1133" y="876" class="value">0.44×</text>
<text x="260" y="898" text-anchor="end" class="label">pickle</text>
<rect x="270.0" y="888" width="569.7" height="14" rx="2" class="slow"/>
<text x="1133" y="899" class="value">0.44×</text>
<text x="260" y="921" text-anchor="end" class="label">regex_dna</text>
<rect x="270.0" y="911" width="613.4" height="14" rx="2" class="slow"/>
<text x="1133" y="922" class="value">0.56×</text>
<text x="260" y="944" text-anchor="end" class="label">float</text>
<rect x="270.0" y="934" width="630.6" height="14" rx="2" class="slow"/>
<text x="1133" y="945" class="value">0.61×</text>
<text x="260" y="967" text-anchor="end" class="label">fannkuch</text>
<rect x="270.0" y="957" width="702.2" height="14" rx="2" class="slow"/>
<text x="1133" y="968" class="value">0.90×</text>
<text x="260" y="990" text-anchor="end" class="label">pickle_dict</text>
<rect x="270.0" y="980" width="704.5" height="14" rx="2" class="slow"/>
<text x="1133" y="991" class="value">0.91×</text>
<text x="260" y="1013" text-anchor="end" class="label">pickle_list</text>
<rect x="270.0" y="1003" width="715.2" height="14" rx="2" class="slow"/>
<text x="1133" y="1014" class="value">0.96×</text>
<text x="260" y="1036" text-anchor="end" class="label">gc_traversal</text>
<rect x="270.0" y="1026" width="779.9" height="14" rx="2" class="fast"/>
<text x="1133" y="1037" class="value">1.37×</text>
<text x="270" y="1089" class="sub">Logarithmic scale; 1× means equal time; faster ratios extend right of the vertical 1× line.</text>
</svg>
