<svg xmlns="http://www.w3.org/2000/svg" width="1200" height="1271" viewBox="0 0 1200 1271">
<style>text{font-family:Segoe UI,Arial,sans-serif;fill:#17212b}.title{font-size:23px;font-weight:700}.sub{font-size:14px;fill:#475569}.label{font-size:13px}.value{font-size:12px;fill:#334155}.axis{font-size:12px;fill:#475569}</style>
<rect width="100%" height="100%" fill="#fff"/>
<text x="24" y="30" class="title">XLang3 vs CPython 3.14 — full pyperformance fast results</text>
<text x="24" y="54" class="sub">CPython time ÷ XLang3 time · left of 1× means XLang3 slower · log scale · includes focused pickle memo rerun</text>
<line x1="360.3" y1="72" x2="360.3" y2="1237" stroke="#dbe2ea" stroke-width="1"/>
<text x="360.3" y="1258" text-anchor="middle" class="axis">0.001×</text>
<line x1="506.9" y1="72" x2="506.9" y2="1237" stroke="#dbe2ea" stroke-width="1"/>
<text x="506.9" y="1258" text-anchor="middle" class="axis">0.01×</text>
<line x1="653.4" y1="72" x2="653.4" y2="1237" stroke="#dbe2ea" stroke-width="1"/>
<text x="653.4" y="1258" text-anchor="middle" class="axis">0.1×</text>
<line x1="800.0" y1="72" x2="800.0" y2="1237" stroke="#2563eb" stroke-width="2"/>
<text x="800.0" y="1258" text-anchor="middle" class="axis">1×</text>
<line x1="3400.6" y1="72" x2="3400.6" y2="1237" stroke="#dbe2ea" stroke-width="1"/>
<text x="3400.6" y="1258" text-anchor="middle" class="axis">10×</text>
<text x="24" y="87" class="label">unpickle_list</text>
<rect x="400.0" y="74" width="400.0" height="15" rx="3" fill="#c2413b"/>
<text x="393.0" y="86" text-anchor="end" class="value">0.00187×</text>
<text x="24" y="113" class="label">unpickle</text>
<rect x="402.1" y="100" width="397.9" height="15" rx="3" fill="#c2413b"/>
<text x="395.1" y="112" text-anchor="end" class="value">0.00193×</text>
<text x="24" y="139" class="label">typing_runtime_protocols</text>
<rect x="533.0" y="126" width="267.0" height="15" rx="3" fill="#c2413b"/>
<text x="526.0" y="138" text-anchor="end" class="value">0.0151×</text>
<text x="24" y="165" class="label">deepcopy_memo</text>
<rect x="547.3" y="152" width="252.7" height="15" rx="3" fill="#c2413b"/>
<text x="540.3" y="164" text-anchor="end" class="value">0.0189×</text>
<text x="24" y="191" class="label">logging_silent</text>
<rect x="552.9" y="178" width="247.1" height="15" rx="3" fill="#c2413b"/>
<text x="545.9" y="190" text-anchor="end" class="value">0.0206×</text>
<text x="24" y="217" class="label">coroutines</text>
<rect x="560.2" y="204" width="239.8" height="15" rx="3" fill="#c2413b"/>
<text x="553.2" y="216" text-anchor="end" class="value">0.0231×</text>
<text x="24" y="243" class="label">pickle_pure_python</text>
<rect x="562.8" y="230" width="237.2" height="15" rx="3" fill="#c2413b"/>
<text x="555.8" y="242" text-anchor="end" class="value">0.0241×</text>
<text x="24" y="269" class="label">generators</text>
<rect x="568.7" y="256" width="231.3" height="15" rx="3" fill="#c2413b"/>
<text x="561.7" y="268" text-anchor="end" class="value">0.0264×</text>
<text x="24" y="295" class="label">deepcopy</text>
<rect x="573.0" y="282" width="227.0" height="15" rx="3" fill="#c2413b"/>
<text x="566.0" y="294" text-anchor="end" class="value">0.0283×</text>
<text x="24" y="321" class="label">gc_traversal</text>
<rect x="573.6" y="308" width="226.4" height="15" rx="3" fill="#c2413b"/>
<text x="566.6" y="320" text-anchor="end" class="value">0.0285×</text>
<text x="24" y="347" class="label">unpickle_pure_python</text>
<rect x="574.8" y="334" width="225.2" height="15" rx="3" fill="#c2413b"/>
<text x="567.8" y="346" text-anchor="end" class="value">0.0291×</text>
<text x="24" y="373" class="label">subparsers</text>
<rect x="578.6" y="360" width="221.4" height="15" rx="3" fill="#c2413b"/>
<text x="571.6" y="372" text-anchor="end" class="value">0.0308×</text>
<text x="24" y="399" class="label">deepcopy_reduce</text>
<rect x="584.0" y="386" width="216.0" height="15" rx="3" fill="#c2413b"/>
<text x="577.0" y="398" text-anchor="end" class="value">0.0336×</text>
<text x="24" y="425" class="label">deltablue</text>
<rect x="588.9" y="412" width="211.1" height="15" rx="3" fill="#c2413b"/>
<text x="581.9" y="424" text-anchor="end" class="value">0.0363×</text>
<text x="24" y="451" class="label">richards_super</text>
<rect x="601.4" y="438" width="198.6" height="15" rx="3" fill="#c2413b"/>
<text x="594.4" y="450" text-anchor="end" class="value">0.0442×</text>
<text x="24" y="477" class="label">richards</text>
<rect x="603.9" y="464" width="196.1" height="15" rx="3" fill="#c2413b"/>
<text x="596.9" y="476" text-anchor="end" class="value">0.0459×</text>
<text x="24" y="503" class="label">logging_simple</text>
<rect x="607.2" y="490" width="192.8" height="15" rx="3" fill="#c2413b"/>
<text x="600.2" y="502" text-anchor="end" class="value">0.0484×</text>
<text x="24" y="529" class="label">go</text>
<rect x="612.0" y="516" width="188.0" height="15" rx="3" fill="#c2413b"/>
<text x="605.0" y="528" text-anchor="end" class="value">0.0522×</text>
<text x="24" y="555" class="label">logging_format</text>
<rect x="612.4" y="542" width="187.6" height="15" rx="3" fill="#c2413b"/>
<text x="605.4" y="554" text-anchor="end" class="value">0.0525×</text>
<text x="24" y="581" class="label">hexiom</text>
<rect x="621.4" y="568" width="178.6" height="15" rx="3" fill="#c2413b"/>
<text x="614.4" y="580" text-anchor="end" class="value">0.0604×</text>
<text x="24" y="607" class="label">many_optionals</text>
<rect x="622.8" y="594" width="177.2" height="15" rx="3" fill="#c2413b"/>
<text x="615.8" y="606" text-anchor="end" class="value">0.0618×</text>
<text x="24" y="633" class="label">comprehensions</text>
<rect x="624.4" y="620" width="175.6" height="15" rx="3" fill="#c2413b"/>
<text x="617.4" y="632" text-anchor="end" class="value">0.0633×</text>
<text x="24" y="659" class="label">meteor_contest</text>
<rect x="624.9" y="646" width="175.1" height="15" rx="3" fill="#c2413b"/>
<text x="617.9" y="658" text-anchor="end" class="value">0.0639×</text>
<text x="24" y="685" class="label">chaos</text>
<rect x="630.1" y="672" width="169.9" height="15" rx="3" fill="#c2413b"/>
<text x="623.1" y="684" text-anchor="end" class="value">0.0693×</text>
<text x="24" y="711" class="label">pathlib</text>
<rect x="630.3" y="698" width="169.7" height="15" rx="3" fill="#c2413b"/>
<text x="623.3" y="710" text-anchor="end" class="value">0.0696×</text>
<text x="24" y="737" class="label">nqueens</text>
<rect x="641.9" y="724" width="158.1" height="15" rx="3" fill="#c2413b"/>
<text x="634.9" y="736" text-anchor="end" class="value">0.0834×</text>
<text x="24" y="763" class="label">spectral_norm</text>
<rect x="652.3" y="750" width="147.7" height="15" rx="3" fill="#c2413b"/>
<text x="645.3" y="762" text-anchor="end" class="value">0.0982×</text>
<text x="24" y="789" class="label">crypto_pyaes</text>
<rect x="664.2" y="776" width="135.8" height="15" rx="3" fill="#c2413b"/>
<text x="657.2" y="788" text-anchor="end" class="value">0.118×</text>
<text x="24" y="815" class="label">regex_effbot</text>
<rect x="670.8" y="802" width="129.2" height="15" rx="3" fill="#c2413b"/>
<text x="663.8" y="814" text-anchor="end" class="value">0.131×</text>
<text x="24" y="841" class="label">json_dumps</text>
<rect x="672.8" y="828" width="127.2" height="15" rx="3" fill="#c2413b"/>
<text x="665.8" y="840" text-anchor="end" class="value">0.136×</text>
<text x="24" y="867" class="label">json_loads</text>
<rect x="680.5" y="854" width="119.5" height="15" rx="3" fill="#c2413b"/>
<text x="673.5" y="866" text-anchor="end" class="value">0.153×</text>
<text x="24" y="893" class="label">fannkuch</text>
<rect x="684.6" y="880" width="115.4" height="15" rx="3" fill="#c2413b"/>
<text x="677.6" y="892" text-anchor="end" class="value">0.163×</text>
<text x="24" y="919" class="label">regex_v8</text>
<rect x="700.6" y="906" width="99.4" height="15" rx="3" fill="#c2413b"/>
<text x="693.6" y="918" text-anchor="end" class="value">0.21×</text>
<text x="24" y="945" class="label">unpack_sequence</text>
<rect x="707.8" y="932" width="92.2" height="15" rx="3" fill="#c2413b"/>
<text x="700.8" y="944" text-anchor="end" class="value">0.235×</text>
<text x="24" y="971" class="label">pickle</text>
<rect x="713.2" y="958" width="86.8" height="15" rx="3" fill="#c2413b"/>
<text x="706.2" y="970" text-anchor="end" class="value">0.256×</text>
<text x="24" y="997" class="label">nbody</text>
<rect x="720.1" y="984" width="79.9" height="15" rx="3" fill="#c2413b"/>
<text x="713.1" y="996" text-anchor="end" class="value">0.285×</text>
<text x="24" y="1023" class="label">asyncio_websockets</text>
<rect x="732.1" y="1010" width="67.9" height="15" rx="3" fill="#c2413b"/>
<text x="725.1" y="1022" text-anchor="end" class="value">0.344×</text>
<text x="24" y="1049" class="label">pidigits</text>
<rect x="745.5" y="1036" width="54.5" height="15" rx="3" fill="#c2413b"/>
<text x="738.5" y="1048" text-anchor="end" class="value">0.425×</text>
<text x="24" y="1075" class="label">regex_dna</text>
<rect x="771.8" y="1062" width="28.2" height="15" rx="3" fill="#c2413b"/>
<text x="764.8" y="1074" text-anchor="end" class="value">0.642×</text>
<text x="24" y="1101" class="label">float</text>
<rect x="781.6" y="1088" width="18.4" height="15" rx="3" fill="#c2413b"/>
<text x="774.6" y="1100" text-anchor="end" class="value">0.749×</text>
<text x="24" y="1127" class="label">python_startup</text>
<rect x="793.5" y="1114" width="6.5" height="15" rx="3" fill="#c2413b"/>
<text x="786.5" y="1126" text-anchor="end" class="value">0.902×</text>
<text x="24" y="1153" class="label">pickle_dict</text>
<rect x="800.0" y="1140" width="169.7" height="15" rx="3" fill="#24804a"/>
<text x="976.7" y="1152" text-anchor="start" class="value">1.16×</text>
<text x="24" y="1179" class="label">python_startup_no_site</text>
<rect x="800.0" y="1166" width="174.9" height="15" rx="3" fill="#24804a"/>
<text x="981.9" y="1178" text-anchor="start" class="value">1.17×</text>
<text x="24" y="1205" class="label">pickle_list</text>
<rect x="800.0" y="1192" width="300.0" height="15" rx="3" fill="#24804a"/>
<text x="1107.0" y="1204" text-anchor="start" class="value">1.3×</text>
</svg>
